<svg width="48" height="49" viewBox="0 0 48 49" fill="none" xmlns="http://www.w3.org/2000/svg">
<path fill-rule="evenodd" clip-rule="evenodd" d="M47.9996 35.4106C47.956 35.5608 47.9093 35.7101 47.8693 35.8612C47.3763 37.7311 45.8219 39.0135 43.882 39.208C42.2678 39.3697 40.6595 39.5925 39.0459 39.763C38.7186 39.7976 38.7715 39.9962 38.7689 40.1889C38.7433 42.0403 38.7233 43.8919 38.698 45.7434C38.6886 46.4237 38.6804 47.1046 38.6497 47.7842C38.6264 48.2978 38.2996 48.6186 37.8631 48.601C37.4288 48.5834 37.1268 48.2417 37.1322 47.7273C37.1613 44.8946 37.1957 42.0619 37.2351 39.2294C37.2428 38.6756 37.46 38.4063 38.0029 38.3382C39.8141 38.1111 41.6258 37.8836 43.4417 37.6995C44.9728 37.5444 45.9688 36.8495 46.3471 35.5763C46.4512 35.2259 46.4862 34.8678 46.4691 34.4995C46.3207 31.2913 46.1774 28.0829 46.034 24.8745C45.9351 22.6618 45.8481 20.4483 45.7368 18.2363C45.6687 16.8847 44.882 15.8752 43.7158 15.5815C42.4948 15.2739 41.3596 15.7693 40.648 16.9409C39.4458 18.9199 38.2203 20.8856 37.0726 22.8966C36.6205 23.6889 36.0048 23.9973 35.1638 24.1068C32.8908 24.4026 30.6218 24.7304 28.3541 25.0652C27.2454 25.2289 26.5229 26.2242 26.6188 27.3947C26.704 28.4364 27.6199 29.3057 28.6947 29.2354C29.7662 29.1653 30.8306 28.9803 31.8961 28.8303C33.8087 28.5606 35.7177 28.2654 37.632 28.0094C38.5294 27.8894 39.2015 27.4875 39.6664 26.687C40.3706 25.4748 41.1091 24.2832 41.8318 23.0821C41.9638 22.8627 42.1039 22.6533 42.3728 22.5918C42.6873 22.5197 42.9688 22.5811 43.1717 22.8485C43.4115 23.1645 43.377 23.4962 43.1818 23.8213C42.4679 25.0095 41.7625 26.2032 41.0305 27.3799C40.8284 27.7044 40.7443 28.0247 40.7512 28.4027C40.768 29.3362 40.7594 30.2701 40.7556 31.2039C40.7526 31.9467 40.5097 32.1952 39.7991 32.2741C37.8453 32.4908 35.8912 32.7069 33.9408 32.9532C32.4247 33.1447 31.4024 34.3575 31.4008 35.9228C31.397 39.7688 31.3994 43.6145 31.3991 47.4603C31.3991 47.6026 31.4082 47.7466 31.3914 47.8871C31.3428 48.2938 31.0203 48.5948 30.6413 48.6006C30.2532 48.6068 29.946 48.3303 29.8827 47.908C29.864 47.7836 29.8619 47.6558 29.8618 47.5296C29.8608 43.6996 29.8513 39.8696 29.8646 36.0396C29.873 33.6507 31.3523 31.7868 33.5305 31.4532C34.9181 31.2407 36.3188 31.1167 37.7136 30.9537C37.76 30.9482 37.8073 30.9502 37.8539 30.9461C39.3179 30.8156 39.3179 30.8156 39.1752 29.3171C35.8355 29.8858 32.4715 30.2958 29.1188 30.7828C28.4304 30.8829 27.7547 30.8003 27.1694 30.4527C26.6496 30.144 26.1265 30.0995 25.5601 30.106C24.3684 30.12 24.3683 30.1103 24.3683 31.3067C24.3683 36.6718 24.3683 42.037 24.368 47.4021C24.368 47.5604 24.3778 47.72 24.3609 47.8766C24.3164 48.2856 23.9999 48.5889 23.6207 48.6007C23.2325 48.6129 22.9151 48.339 22.8548 47.9184C22.8279 47.7318 22.8306 47.54 22.8306 47.3504C22.8294 41.7954 22.8248 36.2402 22.839 30.6852C22.8402 30.2445 22.7545 30.09 22.282 30.098C20.4546 30.1285 18.6262 30.1107 16.7983 30.1097C16.6421 30.1097 16.484 30.1155 16.3305 30.0931C15.9112 30.032 15.7064 29.7524 15.6778 29.3483C15.6522 28.9876 15.9554 28.6402 16.3185 28.5855C16.4564 28.5648 16.5992 28.575 16.7397 28.575C19.4739 28.5744 22.208 28.576 24.9421 28.571C25.1054 28.5706 25.3839 28.693 25.2491 28.2851C24.5519 26.1741 25.8744 23.7555 28.553 23.4469C30.799 23.1882 33.0322 22.8159 35.2736 22.5125C35.5291 22.4779 35.6099 22.3151 35.7118 22.146C36.9492 20.0966 38.1684 18.0356 39.4233 15.9973C40.9599 13.5012 44.3343 13.2267 46.2309 15.4286C46.8789 16.181 47.2053 17.0653 47.2507 18.0667C47.4545 22.571 47.6633 27.0751 47.881 31.5788C47.9106 32.1913 47.8311 32.8125 47.9999 33.4161C47.9996 34.0811 47.9996 34.7459 47.9996 35.4106Z" fill="#F17A23"/>
<path fill-rule="evenodd" clip-rule="evenodd" d="M0 33.8911C0.184917 33.3925 0.128702 32.8623 0.168856 32.3494C0.47846 28.3931 0.755625 24.434 1.0517 20.4767C1.15198 19.1372 1.21866 17.7911 1.4078 16.4636C1.62505 14.9391 2.76129 13.8403 4.27592 13.5202C5.65995 13.2277 7.21801 13.8335 7.99815 15.0717C9.19821 16.9765 10.3556 18.9096 11.4958 20.8519C11.7271 21.246 11.9049 21.2685 12.2934 21.1061C14.2233 20.2999 16.1624 19.5156 18.1077 18.7478C20.2137 17.9167 22.4074 19.0227 22.9951 21.1877C23.4582 22.8943 22.6499 24.7199 21.014 25.4372C19.1277 26.2644 17.205 27.0063 15.2973 27.783C14.0979 28.2715 12.8932 28.7464 11.698 29.245C10.7421 29.6436 9.79142 29.6019 8.84232 29.2517C8.82721 29.2923 8.81813 29.3067 8.81675 29.3219C8.68689 30.8013 8.68795 30.7912 10.1756 30.9492C11.4939 31.0893 12.8118 31.2376 14.1259 31.4134C16.5424 31.7368 18.097 33.4218 18.1251 35.8789C18.1699 39.8028 18.1405 43.7277 18.1357 47.6521C18.135 48.2483 17.8402 48.5954 17.3779 48.6014C16.9021 48.6078 16.6018 48.2361 16.6016 47.6238C16.5999 43.7783 16.6015 39.933 16.6003 36.0878C16.5998 34.2347 15.5705 33.1145 13.7548 32.9237C11.8464 32.7234 9.94189 32.4863 8.0364 32.2584C7.50637 32.195 7.25288 31.8967 7.24654 31.3227C7.23629 30.4049 7.22012 29.4862 7.25256 28.5696C7.27074 28.0542 7.13548 27.627 6.86381 27.1962C6.1587 26.0777 5.48856 24.9366 4.80827 23.8021C4.61258 23.4757 4.59187 23.1421 4.8405 22.832C5.05099 22.5697 5.33555 22.5179 5.64653 22.5974C5.91186 22.6651 6.0468 22.8804 6.17846 23.0995C6.90069 24.301 7.62335 25.5021 8.34928 26.7011C9.06486 27.8831 9.97476 28.232 11.2519 27.7264C14.2702 26.5315 17.2804 25.3145 20.284 24.0817C21.3884 23.6285 21.8694 22.4142 21.4374 21.3318C21.0091 20.2588 19.8303 19.735 18.7223 20.1742C16.5171 21.0482 14.3229 21.9505 12.1241 22.8412C11.2763 23.1846 11.0816 23.1206 10.6016 22.3249C9.34868 20.2482 8.10899 18.1632 6.84184 16.0956C5.96089 14.6581 3.97636 14.6439 3.14729 16.0428C2.93046 16.4088 2.86685 16.8125 2.83589 17.2219C2.66439 19.4921 2.50463 21.7634 2.3344 24.0337C2.13109 26.7455 1.92082 29.4568 1.71434 32.1684C1.6483 33.0355 1.55362 33.9017 1.52689 34.7701C1.47913 36.3148 2.6869 37.4858 4.44879 37.6931C6.26077 37.9063 8.06979 38.1458 9.87881 38.3839C10.7095 38.4932 10.8706 38.6969 10.8707 39.5589C10.8709 42.2015 10.8709 44.8443 10.8706 47.4869C10.8706 47.6293 10.8803 47.7735 10.8625 47.9136C10.8117 48.3125 10.4716 48.6233 10.0926 48.5974C9.68777 48.5695 9.42244 48.3532 9.36633 47.9297C9.34361 47.7581 9.34678 47.5824 9.34678 47.4086C9.34562 45.0509 9.34044 42.693 9.35238 40.3351C9.35396 40.0149 9.29553 39.8704 8.94038 39.827C7.17574 39.6113 5.40719 39.4101 3.65523 39.1122C1.75597 38.7894 0.597864 37.5905 0.0997497 35.7201C0.0719593 35.6154 0.0337076 35.5137 0.000316827 35.4105C-1.74137e-07 34.9042 0 34.3978 0 33.8911Z" fill="#F17A23"/>
<path fill-rule="evenodd" clip-rule="evenodd" d="M23.6231 0.755484C25.3418 0.755484 27.0605 0.7527 28.7792 0.756339C30.1186 0.759229 31.1128 1.63769 31.1461 2.98551C31.1979 5.08912 31.1967 7.19572 31.1489 9.29944C31.1178 10.6664 30.1214 11.5564 28.7559 11.5592C26.2715 11.5644 23.7872 11.5713 21.303 11.5512C20.8451 11.5476 20.4985 11.6853 20.1687 11.991C19.5352 12.5784 18.8776 13.1394 18.2307 13.7122C17.795 14.0978 17.3115 14.2536 16.7659 13.983C16.2317 13.7182 16.0285 13.2622 16.0303 12.6662C16.0393 9.50078 16.0323 6.33525 16.0355 3.16982C16.0369 1.73745 17.0047 0.759336 18.4202 0.756232C20.1545 0.752592 21.8887 0.755484 23.6231 0.755484ZM17.6314 12.1809C18.1779 11.6989 18.7096 11.2597 19.207 10.7836C19.7974 10.2185 20.4798 9.97945 21.2883 9.98512C23.7084 10.0019 26.1287 9.99187 28.5489 9.99069C29.4278 9.99026 29.6311 9.78646 29.6314 8.91389C29.632 7.07916 29.632 5.24443 29.6314 3.4097C29.6312 2.52535 29.4253 2.30881 28.5638 2.30828C25.2535 2.30635 21.9433 2.30635 18.6331 2.30828C17.7734 2.30871 17.556 2.53231 17.5555 3.40927C17.5541 6.17715 17.5542 8.94515 17.5572 11.713C17.5572 11.8491 17.5161 11.9935 17.6314 12.1809Z" fill="#F17A23"/>
<path fill-rule="evenodd" clip-rule="evenodd" d="M6.60273 11.5917C3.64405 11.5868 1.22682 9.13286 1.25017 6.15807C1.27363 3.16776 3.69361 0.743675 6.64289 0.756305C9.56046 0.768722 11.9747 3.22256 11.9741 6.17487C11.9733 9.16272 9.55972 11.5968 6.60273 11.5917ZM6.61045 2.31349C4.50101 2.31381 2.80358 4.03155 2.80125 6.16824C2.79904 8.30717 4.48823 10.042 6.58741 10.0564C8.70139 10.0708 10.4218 8.32515 10.4191 6.16813C10.4164 4.03027 8.71977 2.31317 6.61045 2.31349Z" fill="#F17A23"/>
<path fill-rule="evenodd" clip-rule="evenodd" d="M41.3668 11.5917C38.4078 11.5778 35.9877 9.10861 36.0273 6.14388C36.0674 3.145 38.4824 0.738797 41.4347 0.756352C44.3494 0.773692 46.7653 3.24241 46.7515 6.18905C46.7373 9.18342 44.3234 11.6056 41.3668 11.5917ZM41.4404 2.31739C39.4085 2.27115 37.6351 3.95228 37.5838 5.97337C37.5268 8.22437 39.1572 10.0089 41.3136 10.056C43.362 10.1006 45.1503 8.39927 45.1952 6.36298C45.2453 4.10567 43.6318 2.36727 41.4404 2.31739Z" fill="#F17A23"/>
<path fill-rule="evenodd" clip-rule="evenodd" d="M23.672 3.98032C24.7654 3.98032 25.8589 3.97721 26.9522 3.9816C27.5112 3.98385 27.8304 4.25915 27.8412 4.73044C27.8523 5.21382 27.5503 5.51663 26.9913 5.51888C24.7733 5.52808 22.5552 5.52744 20.3371 5.51984C19.7853 5.51802 19.4635 5.21296 19.4663 4.74713C19.4692 4.28141 19.8017 3.98428 20.3447 3.98181C21.4538 3.97689 22.563 3.98032 23.672 3.98032Z" fill="#F17A23"/>
<path fill-rule="evenodd" clip-rule="evenodd" d="M21.8903 8.33522C21.3608 8.33501 20.8312 8.34464 20.302 8.33222C19.7962 8.32034 19.474 8.01379 19.466 7.56669C19.4579 7.1166 19.7598 6.78403 20.2742 6.77344C21.3639 6.75096 22.4543 6.75192 23.5439 6.77311C24.0459 6.78285 24.3703 7.12987 24.3644 7.56209C24.358 8.01122 24.0068 8.32494 23.4785 8.33361C22.9493 8.34229 22.4198 8.33543 21.8903 8.33522Z" fill="#F17A23"/>
</svg>
