<svg width="44" height="45" viewBox="0 0 44 45" fill="none" xmlns="http://www.w3.org/2000/svg">
<path fill-rule="evenodd" clip-rule="evenodd" d="M10.9524 27.4292C10.9524 25.8124 10.9375 24.1953 10.9627 22.5788C10.9691 22.1704 10.8464 22.0505 10.4656 22.0964C10.2179 22.1262 9.96254 22.0853 9.71282 22.1056C9.21942 22.1459 8.90325 21.9179 8.79873 21.4495C8.60978 20.6031 8.09734 20.2009 7.30149 19.8634C6.51662 19.5305 5.90143 19.4854 5.17912 19.9055C4.66431 20.205 4.4289 20.1205 4.00147 19.6901C3.44599 19.1306 2.90068 18.5606 2.33692 18.01C2.0029 17.6837 1.90878 17.3144 2.14739 16.9206C2.59799 16.1771 2.56217 15.5182 2.20816 14.6899C1.87213 13.9036 1.48727 13.3919 0.66989 13.2039C0.184879 13.0922 -0.0162433 12.7625 0.00101942 12.2456C0.0283323 11.4231 0.0192274 10.5988 0.00373829 9.77564C-0.00406539 9.3598 0.15189 9.04181 0.541838 8.95509C1.48313 8.74597 1.94343 8.16604 2.27331 7.25278C2.52185 6.56469 2.58037 6.03686 2.24434 5.39369C1.86102 4.65997 1.92155 4.52295 2.49229 3.94494C3.01478 3.41579 3.54401 2.89287 4.05787 2.35521C4.36564 2.03327 4.71894 1.92547 5.09304 2.16154C5.85721 2.6435 6.53862 2.58924 7.3781 2.21161C8.10562 1.88451 8.55291 1.51454 8.77295 0.750756C8.97348 0.054645 9.11336 0.00493942 9.83816 0.00469988C10.6215 0.00446033 11.4049 0.0157185 12.188 0.00026803C12.6017 -0.00775665 12.911 0.164115 12.9911 0.555528C13.1889 1.52232 13.8015 1.94188 14.6754 2.30491C15.3876 2.60086 15.9192 2.58014 16.5533 2.24826C17.2212 1.89876 17.3745 1.95326 17.9101 2.4963C18.4429 3.03635 18.9699 3.58239 19.5102 4.11453C19.8292 4.42869 19.9247 4.79364 19.6891 5.16577C19.1967 5.94344 19.2239 6.65836 19.6622 7.47807C19.9093 7.94027 20.0656 8.14544 20.6333 8.12292C23.6105 8.00506 26.5656 8.18484 29.4408 9.07283C30.3337 9.34854 31.1915 9.70163 31.9501 10.2686C32.6879 10.8202 33.0668 11.5287 33.0599 12.4871C33.0375 15.6459 33.0563 18.8048 33.045 21.9636C33.0437 22.3228 33.0866 22.483 33.5136 22.4776C35.0318 22.4586 34.9101 22.2499 35.4806 23.8483C35.5909 24.1568 35.7505 24.3389 36.0725 24.4297C36.4393 24.533 36.8172 24.6587 37.1344 24.8635C37.5647 25.1411 37.9254 25.0799 38.3578 24.8756C39.4833 24.3437 39.4917 24.3609 40.361 25.2394C40.8109 25.6942 41.2571 26.1525 41.7098 26.6042C41.9982 26.8919 42.0932 27.2396 41.8807 27.5801C41.3792 28.3839 41.432 29.1109 41.8363 29.9792C42.1491 30.6507 42.4625 31.0996 43.1853 31.3114C43.9592 31.5381 43.9954 31.6713 43.9955 32.4754C43.9956 33.2539 43.9845 34.0326 43.9997 34.8108C44.0079 35.2327 43.8255 35.5415 43.4448 35.6218C42.5102 35.8188 42.0755 36.4031 41.739 37.2897C41.4722 37.993 41.4084 38.532 41.7643 39.1932C42.1444 39.8991 42.0778 40.0474 41.5287 40.605C41.0172 41.1245 40.4941 41.6325 39.9974 42.166C39.6549 42.5338 39.2693 42.6482 38.8491 42.3841C38.1427 41.94 37.5202 41.9678 36.7291 42.312C35.9303 42.6595 35.3847 43.0486 35.1999 43.9242C35.1002 44.3961 34.7644 44.5845 34.276 44.5695C33.4492 44.5439 32.6208 44.5541 31.7934 44.566C31.3989 44.5716 31.1046 44.4039 31.0211 44.0314C30.8096 43.0874 30.2544 42.6009 29.347 42.2703C28.6708 42.024 28.1502 41.9509 27.5108 42.2938C26.7711 42.6907 26.6443 42.6263 26.0466 42.0213C25.5343 41.5028 25.0297 40.9763 24.5076 40.4681C24.1722 40.1417 24.0826 39.7709 24.321 39.3781C24.7724 38.6341 24.8229 37.9471 24.356 37.1543C23.9659 36.492 24.0436 36.4474 23.2596 36.4666C20.3095 36.5389 17.3855 36.3643 14.5399 35.4877C13.6331 35.2084 12.7632 34.8432 11.9999 34.2551C11.2958 33.7128 10.9291 33.0212 10.945 32.1002C10.9718 30.5435 10.9524 28.9861 10.9524 27.4292ZM4.17221 15.6341C4.17836 15.9714 4.01046 16.2114 3.90523 16.4712C3.5329 17.3903 3.4616 17.069 4.14182 17.7748C4.82689 18.4854 4.84226 18.4978 5.70705 18.0789C6.16487 17.8572 6.55671 17.8478 6.99076 18.1358C7.48511 18.4639 8.0361 18.7175 8.6118 18.8296C9.25205 18.9542 9.56455 19.3171 9.75776 19.9121C10.0063 20.6774 10.0342 20.668 10.8175 20.668C11.799 20.668 11.8203 20.6756 12.1506 19.7223C12.3157 19.2462 12.5911 18.9792 13.0733 18.8743C13.6377 18.7515 14.191 18.5507 14.6663 18.2279C15.2259 17.8478 15.7223 17.8637 16.3113 18.1577C17.1347 18.5685 16.8725 18.5894 17.5195 17.947C18.2501 17.2217 18.2645 17.2063 17.8327 16.289C17.6171 15.8313 17.6411 15.4506 17.9074 15.0298C18.2263 14.5257 18.4824 13.9711 18.5925 13.3872C18.7146 12.7394 19.0719 12.4213 19.6602 12.226C20.4164 11.9749 20.4072 11.9463 20.4072 11.1533C20.4072 10.1632 20.4149 10.1412 19.4745 9.80175C19.0064 9.63276 18.7403 9.35728 18.6365 8.86802C18.5151 8.29647 18.3177 7.73558 17.9989 7.2541C17.6238 6.68758 17.6383 6.18502 17.9289 5.58784C18.3352 4.75279 18.3549 5.01869 17.7215 4.36402C17.0034 3.62167 16.9893 3.60946 16.0423 4.05968C15.6201 4.26053 15.2673 4.23993 14.8804 3.99189C14.3551 3.65497 13.7829 3.38992 13.1779 3.26092C12.6028 3.1384 12.2929 2.83154 12.1075 2.27784C11.8235 1.42938 11.7964 1.4386 10.9256 1.4386C10.0314 1.4386 10.0053 1.42962 9.71259 2.3C9.53157 2.83849 9.23231 3.13983 8.67233 3.25505C8.13991 3.36464 7.61316 3.56634 7.1648 3.87715C6.60814 4.26317 6.10918 4.24389 5.52035 3.94889C4.7122 3.54418 4.9644 3.50921 4.31149 4.15921C3.58185 4.88538 3.56659 4.90023 3.99852 5.81744C4.21406 6.27545 4.18829 6.65632 3.92261 7.07672C3.60384 7.58107 3.34774 8.1355 3.23837 8.71962C3.11694 9.3683 2.75809 9.68557 2.17021 9.88044C1.41514 10.1308 1.42413 10.1588 1.42413 10.9541C1.42413 11.9483 1.41668 11.9697 2.35773 12.3045C2.82785 12.4717 3.08679 12.7521 3.19521 13.2391C3.34182 13.8978 3.6224 14.508 3.95169 15.0948C4.05291 15.2751 4.17694 15.4493 4.17221 15.6341ZM40.3927 27.4153C40.2976 27.1488 40.0747 27.011 39.903 26.8346C39.1742 26.0853 39.1633 26.0718 38.2274 26.5154C37.8094 26.7135 37.4537 26.7105 37.064 26.4594C36.5648 26.1378 36.0245 25.8652 35.4462 25.7576C34.7549 25.6288 34.4211 25.2303 34.2246 24.582C34.0142 23.8876 33.9779 23.8988 33.2445 23.8988C32.209 23.8988 32.1917 23.8926 31.8435 24.8738C31.681 25.3313 31.4061 25.5867 30.9438 25.6887C30.3796 25.8131 29.8229 26.0069 29.3506 26.3334C28.7747 26.7313 28.2642 26.7005 27.6644 26.3968C26.8808 25.9999 27.123 25.9838 26.4939 26.6097C25.7529 27.3469 25.742 27.3599 26.1797 28.3076C26.375 28.7308 26.3727 29.0912 26.1245 29.4859C25.8066 29.9915 25.5378 30.539 25.4316 31.1249C25.3046 31.8253 24.9107 32.1633 24.2712 32.3628C23.5858 32.5766 23.5969 32.6133 23.5968 33.3556C23.5966 34.4066 23.5907 34.4235 24.5597 34.7741C25.0117 34.9376 25.2632 35.2177 25.3636 35.686C25.4861 36.2579 25.6786 36.8213 26.0003 37.3001C26.3921 37.8835 26.3628 38.4006 26.0628 39.0084C25.6715 39.8004 25.6539 39.5552 26.2732 40.1937C27.0008 40.944 27.0138 40.9558 27.9505 40.5111C28.3688 40.3127 28.7248 40.3158 29.1134 40.568C29.5864 40.875 30.0997 41.1363 30.6476 41.2407C31.3961 41.3832 31.8317 41.7933 31.974 42.5315C32.0713 43.036 32.3505 43.1618 32.8445 43.1421C33.9545 43.0979 33.9643 43.1317 34.3694 42.0711C34.509 41.7058 34.7202 41.4767 35.1072 41.3819C35.71 41.2342 36.3156 41.0467 36.8266 40.694C37.4022 40.2967 37.9125 40.327 38.5126 40.6302C39.31 41.0328 39.0601 41.0346 39.6826 40.4171C40.4245 39.681 40.4352 39.6671 39.9966 38.7192C39.8006 38.2958 39.8043 37.9358 40.0515 37.5409C40.3684 37.035 40.6381 36.4879 40.7444 35.902C40.8713 35.2014 41.2668 34.8649 41.905 34.6651C42.5908 34.4505 42.5798 34.4142 42.5798 33.6722C42.5798 32.6231 42.5862 32.6051 41.6176 32.2529C41.165 32.0884 40.9172 31.8082 40.8123 31.3417C40.6711 30.7125 40.4351 30.1113 40.0938 29.568C39.81 29.1164 39.7652 28.6969 40.0311 28.2276C40.177 27.9705 40.2744 27.6854 40.3927 27.4153ZM31.5977 21.04C29.4087 22.2279 27.1069 22.6123 24.7611 22.8288C22.8132 23.0086 20.8658 22.9967 18.9215 22.8081C17.0974 22.6311 15.2981 22.312 13.5872 21.6129C13.2803 21.4875 13.0109 21.3102 12.8695 21.7969C12.8478 21.8715 12.7585 21.9552 12.6832 21.9794C12.4092 22.0671 12.4005 22.2698 12.4024 22.5088C12.4104 23.4814 12.4202 24.4546 12.3987 25.4268C12.3901 25.8142 12.5381 26.0831 12.8222 26.309C13.2685 26.6638 13.771 26.9186 14.2987 27.1098C17.519 28.276 20.8572 28.3519 24.2202 28.1914C24.547 28.1759 24.4909 28.0093 24.3897 27.8137C24.1779 27.4048 24.0681 27.0052 24.4478 26.6238C25.0667 26.002 25.682 25.3766 26.2979 24.7519C26.5578 24.4881 26.8589 24.438 27.1913 24.5791C27.5039 24.7116 27.8202 24.8392 28.1198 24.9983C28.351 25.1213 28.5412 25.1249 28.7746 24.9919C29.1984 24.7502 29.6441 24.5431 30.1182 24.4257C30.4262 24.3493 30.5701 24.1646 30.6884 23.8785C30.9037 23.3583 30.9309 22.7112 31.5542 22.4337C31.5914 22.417 31.5953 22.2982 31.596 22.2268C31.5997 21.8543 31.5977 21.4817 31.5977 21.04ZM19.3449 16.1095C19.4715 16.407 19.5885 16.694 19.7147 16.9767C19.8798 17.3465 19.8286 17.6695 19.5413 17.9583C18.9332 18.5695 18.3284 19.1839 17.7239 19.7987C17.4372 20.0902 17.1152 20.1304 16.7527 19.9606C16.4318 19.8104 16.1072 19.6679 15.783 19.5248C15.6641 19.4723 15.554 19.4144 15.409 19.4857C14.9336 19.72 14.4506 19.9388 13.9508 20.1729C14.008 20.2065 14.0519 20.2405 14.1015 20.2601C14.3072 20.341 14.5123 20.4248 14.7218 20.4946C16.429 21.0624 18.1914 21.3153 19.9773 21.4244C22.8343 21.599 25.6717 21.4863 28.4569 20.7512C29.3993 20.5026 30.3201 20.1838 31.1198 19.5879C31.4506 19.3414 31.6191 19.0469 31.6078 18.603C31.5792 17.4668 31.5983 16.3293 31.5983 15.1922C31.5983 14.9027 31.5983 14.6131 31.5983 14.3116C27.6712 16.2307 23.5438 16.2865 19.3449 16.1095ZM12.4059 27.8018C12.4059 29.0909 12.4974 30.3096 12.3799 31.5074C12.2649 32.68 12.819 33.2544 13.7647 33.6439C13.9557 33.7225 14.1433 33.8098 14.3362 33.8829C16.6084 34.7439 18.9861 34.9473 21.3817 35.0297C22.1806 35.0571 22.1886 35.0462 22.1776 34.264C22.1724 33.8936 22.3327 33.4272 22.1091 33.1796C21.8969 32.9446 21.4356 33.1227 21.0844 33.1027C20.568 33.0733 20.2424 32.7955 20.2464 32.3715C20.2503 31.9524 20.5945 31.6103 21.091 31.6508C21.8653 31.7142 22.5403 31.431 23.2605 31.2239C24.1235 30.9759 24.134 30.2882 24.4232 29.6214C22.3146 29.7999 20.2959 29.7426 18.2819 29.495C16.2685 29.2478 14.2982 28.8449 12.4059 27.8018ZM19.7544 14.6405C19.9735 14.6554 20.1935 14.673 20.414 14.6848C23.3031 14.8392 26.1616 14.664 28.9549 13.8391C29.7346 13.6089 30.4955 13.3166 31.1434 12.8011C31.754 12.3152 31.7537 11.9671 31.1555 11.4774C30.6558 11.0685 30.0716 10.815 29.4716 10.6036C27.0869 9.76379 24.6078 9.57826 22.1098 9.52065C21.8638 9.51502 21.8168 9.6124 21.8194 9.83385C21.8292 10.6711 21.8131 11.5086 21.8275 12.3457C21.8347 12.7648 21.6509 13.0231 21.2791 13.1672C21.1416 13.2205 21.0072 13.2895 20.8648 13.3208C20.1824 13.4705 19.799 13.884 19.7544 14.6405Z" fill="#F17A23"/>
<path fill-rule="evenodd" clip-rule="evenodd" d="M39.9002 17.7609C40.0223 17.5967 40.1298 17.418 40.27 17.2713C40.5426 16.986 40.8728 16.9471 41.1905 17.1714C41.506 17.3941 41.6315 17.735 41.4162 18.0738C40.8415 18.9784 40.2502 19.874 39.6272 20.7451C39.339 21.1481 38.8181 21.135 38.5278 20.7268C37.9243 19.878 37.3485 19.008 36.7843 18.1318C36.5572 17.7793 36.6744 17.3607 36.9999 17.1514C37.3269 16.9415 37.7173 17.0203 37.9787 17.3558C38.0861 17.4935 38.1816 17.6409 38.2901 17.7948C38.4167 17.6406 38.3637 17.4851 38.3637 17.3435C38.3671 13.5125 38.3599 9.68141 38.3759 5.85053C38.3776 5.43384 38.2598 5.33084 37.8581 5.33204C33.3227 5.34593 28.7873 5.34102 24.2519 5.34042C24.0894 5.34042 23.9258 5.34593 23.7651 5.32761C23.3674 5.28245 23.0938 4.99321 23.087 4.62694C23.0806 4.27434 23.3606 3.95239 23.7406 3.89203C23.8708 3.87143 24.0057 3.87897 24.1385 3.87897C29.0137 3.87849 33.889 3.87826 38.7642 3.87885C39.5865 3.87885 39.8141 4.11097 39.8142 4.94793C39.8147 9.0483 39.8145 13.1487 39.8145 17.249C39.8145 17.4107 39.8145 17.5724 39.8145 17.734C39.8431 17.7431 39.8716 17.752 39.9002 17.7609Z" fill="#F17A23"/>
<path fill-rule="evenodd" clip-rule="evenodd" d="M4.10072 26.6951C3.8983 26.965 3.79011 27.1387 3.65331 27.2853C3.38373 27.574 3.06153 27.6103 2.73153 27.4032C2.40909 27.2009 2.29677 26.7954 2.51208 26.4605C3.08411 25.5708 3.66714 24.6872 4.2815 23.8274C4.57071 23.4225 5.09072 23.4263 5.38088 23.8338C5.99418 24.6947 6.57851 25.5775 7.14853 26.4685C7.35816 26.7961 7.22704 27.2107 6.91962 27.4129C6.61232 27.6151 6.21552 27.552 5.96533 27.2487C5.84472 27.1025 5.74422 26.9392 5.62752 26.7736C5.49651 26.925 5.55173 27.0805 5.55161 27.221C5.54806 31.0541 5.55575 34.8872 5.53884 38.7203C5.53695 39.1458 5.66843 39.2349 6.06193 39.2339C10.585 39.2209 15.1081 39.2255 19.6311 39.226C19.7937 39.226 19.9571 39.2196 20.1185 39.2348C20.5438 39.2749 20.8293 39.5696 20.8271 39.9526C20.8251 40.3057 20.5418 40.6191 20.1592 40.6758C20.0286 40.6952 19.8937 40.6875 19.7608 40.6875C14.8978 40.688 10.0348 40.6881 5.17171 40.6878C4.31969 40.6876 4.10107 40.4638 4.10095 39.5937C4.1006 35.5209 4.10084 31.4482 4.10084 27.3757C4.10072 27.1965 4.10072 27.0174 4.10072 26.6951Z" fill="#F17A23"/>
<path fill-rule="evenodd" clip-rule="evenodd" d="M10.9104 5.0354C14.2066 5.03492 16.8544 7.70678 16.8571 11.0364C16.8598 14.3953 14.2157 17.0729 10.8982 17.0707C7.61307 17.0686 4.97318 14.384 4.97412 11.0462C4.97519 7.71157 7.61756 5.03588 10.9104 5.0354ZM10.9177 6.47026C8.45244 6.46882 6.4003 8.54015 6.39156 11.0389C6.38269 13.534 8.42311 15.6189 10.8905 15.6359C13.3689 15.653 15.4452 13.5571 15.4398 11.044C15.4344 8.54578 13.3837 6.4717 10.9177 6.47026Z" fill="#F17A23"/>
<path fill-rule="evenodd" clip-rule="evenodd" d="M33.0948 39.5309C29.7988 39.5317 27.1497 36.8591 27.147 33.5307C27.1443 30.1672 29.7825 27.4941 33.1036 27.4954C36.39 27.4969 39.0306 30.1799 39.0299 33.5169C39.0292 36.8494 36.3837 39.53 33.0948 39.5309ZM28.5642 33.4778C28.5417 35.9703 30.5722 38.0646 33.0423 38.0958C35.518 38.1272 37.6031 36.0421 37.6124 33.5254C37.6218 31.0313 35.5789 28.9456 33.1117 28.9305C30.6486 28.9153 28.5871 30.9769 28.5642 33.4778Z" fill="#F17A23"/>
<path fill-rule="evenodd" clip-rule="evenodd" d="M22.044 24.8924C22.368 24.8924 22.6924 24.8836 23.0161 24.8945C23.4469 24.9091 23.7629 25.2268 23.757 25.6207C23.7511 26.0024 23.452 26.3151 23.0422 26.3233C22.3501 26.3369 21.6575 26.3367 20.9654 26.3234C20.5533 26.3156 20.2558 26.008 20.2473 25.6247C20.2384 25.2303 20.5535 24.909 20.9836 24.8948C21.3366 24.883 21.6905 24.8924 22.044 24.8924Z" fill="#F17A23"/>
<path fill-rule="evenodd" clip-rule="evenodd" d="M22.0014 18.1332C22.3548 18.1332 22.7094 18.1158 23.0617 18.1377C23.4803 18.1637 23.7646 18.4762 23.7567 18.8586C23.7489 19.2309 23.4438 19.5603 23.0401 19.5712C22.3482 19.5899 21.6551 19.5899 20.9633 19.5712C20.5587 19.5603 20.2555 19.2326 20.2473 18.8589C20.2385 18.4615 20.5366 18.1558 20.9853 18.1331C21.3232 18.1158 21.6627 18.1296 22.0016 18.1296C22.0014 18.1309 22.0014 18.1321 22.0014 18.1332Z" fill="#F17A23"/>
</svg>
