<svg width="48" height="48" viewBox="0 0 48 48" fill="none" xmlns="http://www.w3.org/2000/svg">
<path fill-rule="evenodd" clip-rule="evenodd" d="M2.38053 38.1742C1.54746 37.1 1.53503 35.9298 1.57429 34.747C1.62245 33.2917 1.43388 31.8251 1.67165 30.3817C2.10625 27.7431 3.57858 25.8892 6.0117 24.8636C7.26025 24.3373 8.54728 23.9041 9.82306 23.4463C10.1111 23.3429 10.1971 23.1957 10.2265 22.8813C10.2906 22.1953 10.073 21.7503 9.52365 21.2999C8.19487 20.2105 7.4186 18.7534 7.16329 17.0291C7.12285 16.7559 7.03609 16.5634 6.7618 16.4148C5.93213 15.9649 5.48995 15.242 5.50448 14.2759C5.51861 13.3326 5.96328 12.6297 6.78064 12.1979C7.03687 12.0626 7.07692 11.9021 7.07456 11.6519C7.06553 10.658 7.06448 9.66392 7.07273 8.66999C7.09066 6.53988 8.81752 4.7836 10.9222 4.77605C14.0295 4.76491 17.1368 4.7718 20.2441 4.77353C20.9453 4.77392 21.1977 5.04143 21.198 5.77793C21.1992 9.15754 21.24 12.5378 21.1861 15.9165C21.137 18.9919 19.6503 21.1719 16.9073 22.4742C16.6631 22.5902 16.4605 22.664 16.4737 23.0217C16.4864 23.3657 16.7229 23.3724 16.9189 23.4465C18.1561 23.9145 19.4065 24.3486 20.6346 24.8396C23.392 25.9421 25.1134 28.518 25.1235 31.5087C25.1269 32.5358 25.1213 33.5628 25.1267 34.5899C25.1277 34.7665 25.038 35.002 25.3793 34.9992C25.6469 34.997 25.7777 34.9491 25.8279 34.6359C26.2673 31.8952 26.7119 29.1552 27.1906 26.4214C27.4571 24.8997 28.7243 23.8622 30.2439 23.8608C34.4305 23.8563 38.6172 23.8573 42.8039 23.86C44.4123 23.8611 45.4837 25.134 45.2179 26.7567C44.62 30.409 44.0108 34.0594 43.3881 37.7073C43.3186 38.1144 43.4223 38.1958 43.8031 38.1823C44.6035 38.154 45.4056 38.1695 46.207 38.1751C46.8262 38.1793 47.1011 38.4575 47.1045 39.0857C47.11 40.063 47.1096 41.0405 47.1048 42.0179C47.1014 42.6672 46.825 42.9351 46.1684 42.941C45.8577 42.9438 45.5448 42.9638 45.2367 42.9357C44.8688 42.9022 44.7287 43.0021 44.7402 43.4135C44.7713 44.5225 44.7531 45.633 44.7501 46.743C44.7482 47.4373 44.4847 47.712 43.8098 47.7121C30.3012 47.7133 16.7925 47.7133 3.28374 47.7118C2.63545 47.7117 2.36378 47.4333 2.36156 46.7758C2.35763 45.6326 2.34847 44.4895 2.36771 43.3467C2.3732 43.018 2.27545 42.914 1.95602 42.9352C1.56526 42.961 1.17097 42.953 0.779041 42.9374C0.310685 42.9189 0.0154586 42.627 0.00970066 42.1508C-0.00312384 41.0908 -0.00325456 40.0303 0.00943908 38.9702C0.0154587 38.4715 0.316311 38.188 0.821047 38.1764C1.30419 38.1653 1.78786 38.1742 2.38053 38.1742ZM3.14241 33.3281C3.14241 34.2444 3.13142 34.9898 3.1449 35.7348C3.1678 36.9951 3.96619 37.9537 5.19734 38.1322C5.74278 38.2113 6.30614 38.1697 6.86139 38.1723C7.85568 38.177 7.85947 38.1738 7.85398 37.1748C7.85149 36.731 7.99282 36.1536 7.77323 35.8802C7.54017 35.5899 6.94671 35.8173 6.51212 35.7845C6.47953 35.782 6.44668 35.7847 6.41397 35.784C5.77078 35.7743 5.50343 35.5019 5.50134 34.8375C5.49793 33.695 5.50042 32.5523 5.50042 31.4097C5.50042 30.1863 5.50029 30.1998 6.69964 30.212C7.01646 30.2152 7.07692 30.3225 7.07286 30.6127C7.05807 31.6724 7.07953 32.7326 7.05964 33.792C7.05349 34.1204 7.15177 34.2169 7.47081 34.2041C8.07474 34.18 8.68037 34.1963 9.28522 34.1974C11.5041 34.201 13.0962 35.6426 13.3387 37.8796C13.3597 38.0738 13.3851 38.1787 13.6111 38.1768C14.7882 38.1682 15.9653 38.1723 17.1423 38.1731C17.2895 38.1732 17.3941 38.1585 17.3496 37.9544C17.1968 37.2508 17.2928 36.5363 17.2829 35.8268C17.2753 35.2927 17.5746 35.008 18.104 34.9947C18.4962 34.9849 18.8896 34.9759 19.2807 34.9979C19.5629 35.0137 19.6411 34.9128 19.6376 34.6332C19.6236 33.5406 19.632 32.4475 19.632 31.3545C19.632 30.2128 19.6324 30.2353 20.738 30.2093C21.1525 30.1997 21.2114 30.3541 21.2059 30.7173C21.1869 31.9921 21.2146 33.2678 21.1887 34.5423C21.1809 34.927 21.2989 35.021 21.6564 35.0002C22.1778 34.9698 22.7027 34.9808 23.2252 34.9971C23.4775 35.0051 23.566 34.9299 23.5624 34.6636C23.5471 33.5378 23.6119 32.4074 23.5373 31.2864C23.3805 28.93 22.2264 27.2368 20.0493 26.334C18.9188 25.8651 17.7544 25.4804 16.6114 25.0419C16.379 24.9527 16.2852 24.9917 16.1721 25.2207C15.6057 26.3688 14.6866 27.0095 13.4091 27.0296C12.0689 27.0507 11.1039 26.4063 10.5161 25.1957C10.4102 24.9776 10.3172 24.9585 10.1093 25.0377C8.90401 25.4967 7.67522 25.8974 6.48895 26.4013C4.83498 27.1037 3.7894 28.3791 3.32497 30.1382C3.03236 31.2461 3.18259 32.3779 3.14241 33.3281ZM35.6432 38.1738C37.3272 38.1738 39.011 38.174 40.6949 38.1735C41.5647 38.1734 41.7634 37.9877 41.907 37.1048C42.471 33.6326 43.0384 30.1608 43.611 26.6901C43.7577 25.8016 43.4823 25.447 42.5996 25.4465C39.2484 25.445 35.897 25.4535 32.5457 25.4355C32.1641 25.4335 32.0488 25.5684 31.9923 25.9174C31.3544 29.8463 30.7082 33.7737 30.0533 37.6996C29.994 38.0554 30.0415 38.1889 30.445 38.1835C32.1773 38.1605 33.9105 38.1736 35.6432 38.1738ZM23.5113 46.1263C29.8727 46.1263 36.2343 46.1187 42.5957 46.1404C43.1123 46.1421 43.2242 45.9912 43.1944 45.5098C43.1534 44.8497 43.15 44.1828 43.1954 43.5235C43.2285 43.0402 43.0841 42.9294 42.6105 42.9299C30.5417 42.9447 18.4728 42.9416 6.40376 42.9416C5.73322 42.9416 5.06125 42.969 4.39293 42.9313C3.98569 42.9084 3.90508 43.0611 3.91895 43.4333C3.94538 44.1445 3.95559 44.8594 3.9162 45.5694C3.89081 46.0252 4.02822 46.1378 4.47564 46.1368C10.8209 46.1214 17.166 46.1263 23.5113 46.1263ZM19.6318 10.5505C19.5198 10.5661 19.4556 10.5721 19.3926 10.5843C16.7699 11.094 14.1537 11.5703 11.5451 10.4699C11.0458 10.2592 10.9944 10.3559 10.9923 10.9462C10.9876 12.254 10.3058 13.1863 9.14585 13.4688C8.77512 13.559 8.39732 13.5046 8.02292 13.5162C7.46741 13.5335 7.11788 13.8018 7.076 14.2522C7.03543 14.6871 7.3499 15.024 7.90109 15.1089C8.379 15.1825 8.62135 15.4532 8.63889 15.9386C8.65616 16.4192 8.72068 16.8933 8.84015 17.3586C9.47248 19.8208 11.8775 21.6063 14.3642 21.4619C17.0387 21.3065 19.2109 19.3173 19.5473 16.708C19.7258 15.3233 19.5972 13.931 19.6291 12.5426C19.6444 11.8847 19.6318 11.2263 19.6318 10.5505ZM23.5571 41.3548C30.5564 41.3548 37.5559 41.3548 44.5552 41.3548C45.5402 41.3548 45.5127 41.3538 45.5513 40.3452C45.5695 39.8691 45.4481 39.7482 44.969 39.7487C30.8394 39.7634 16.7098 39.7607 2.58023 39.7607C1.5701 39.7607 1.593 39.7614 1.56094 40.7951C1.54707 41.2432 1.66354 41.3669 2.11737 41.3659C9.26389 41.3502 16.4104 41.3548 23.5571 41.3548ZM8.63719 10.0172C8.63719 10.5491 8.62475 10.9798 8.6436 11.4091C8.6508 11.5725 8.52504 11.8306 8.73573 11.8856C8.93595 11.9381 9.13159 11.7723 9.26088 11.5866C9.38794 11.4039 9.4293 11.1986 9.4272 10.9771C9.42262 10.5139 9.41817 10.0503 9.42838 9.58743C9.44016 9.05149 9.71824 8.77789 10.2481 8.74859C11.1422 8.69928 12.0027 8.85782 12.8349 9.17994C13.5304 9.4493 14.2474 9.55813 14.9911 9.54554C16.4833 9.52035 17.9368 9.2164 19.3971 8.9534C19.6288 8.91164 19.6328 8.77563 19.6322 8.60185C19.6304 7.95668 19.6232 7.31125 19.6358 6.66621C19.6405 6.42853 19.5604 6.3551 19.3277 6.35576C16.5186 6.36358 13.7091 6.34105 10.9004 6.37485C9.78812 6.38824 8.94157 7.18664 8.7017 8.28874C8.56966 8.8956 8.67645 9.50975 8.63719 10.0172ZM27.6091 38.1738C28.3581 38.1738 28.3619 38.1744 28.4902 37.4147C28.7679 35.7715 29.0428 34.1277 29.3159 32.4837C29.6835 30.2699 30.0445 28.055 30.4182 25.8422C30.4777 25.4898 30.3599 25.405 30.034 25.4669C29.2841 25.6091 28.8262 26.1045 28.6764 27.0142C28.1053 30.4823 27.5404 33.9515 26.9781 37.4211C26.8564 38.1722 26.8655 38.1738 27.6091 38.1738ZM22.2992 38.1738C22.8868 38.1738 23.4745 38.1738 24.0622 38.1738C25.3062 38.1738 25.299 38.1729 25.4466 36.8954C25.4725 36.671 25.4734 36.5737 25.208 36.5748C23.184 36.5839 21.1598 36.5791 19.1357 36.5821C19.0325 36.5823 18.9155 36.5441 18.8502 36.6969C18.5685 37.3562 19.0461 38.1579 19.7529 38.1699C20.6014 38.1844 21.4504 38.1734 22.2992 38.1738ZM11.7901 22.6583C11.7901 23.1451 11.747 23.5912 11.7987 24.0258C11.9203 25.0501 12.9008 25.6693 13.8426 25.3527C14.6474 25.0821 15.1675 24.0311 14.9208 23.2022C14.8729 23.0416 14.7766 23.0483 14.6646 23.0543C13.6968 23.1055 12.7491 22.9917 11.7901 22.6583ZM10.6114 38.1735C10.9048 38.1735 11.1987 38.1615 11.4913 38.1771C11.7389 38.1904 11.7899 38.0976 11.7556 37.8588C11.6063 36.8215 10.8064 35.9987 9.76784 35.8181C9.52888 35.7766 9.39514 35.7897 9.41765 36.0907C9.43977 36.3862 9.42236 36.6846 9.42236 36.9818C9.42223 38.1738 9.42223 38.1738 10.6114 38.1735Z" fill="#F17A23"/>
<path fill-rule="evenodd" clip-rule="evenodd" d="M40.6538 20.3698C40.4078 20.375 40.2198 20.2426 40.0354 20.1027C39.617 19.7852 39.1924 19.4754 38.7842 19.1444C38.5823 18.9807 38.4162 18.9895 38.165 19.058C37.4103 19.2635 37.0161 19.6803 37.0503 20.5085C37.0651 20.8648 36.9622 21.2288 36.8939 21.5854C36.812 22.012 36.5517 22.2589 36.1141 22.262C35.0678 22.2691 34.0213 22.2697 32.975 22.2616C32.538 22.2583 32.2726 22.0117 32.1989 21.5827C32.0982 20.9967 32.0054 20.4083 31.9392 19.8176C31.9093 19.5525 31.7782 19.455 31.5641 19.3185C30.8479 18.8622 30.2744 19.0237 29.7166 19.5941C29.4893 19.8266 29.2006 19.9988 28.9342 20.1905C28.5616 20.4589 28.1925 20.4385 27.8682 20.1164C27.1327 19.386 26.4044 18.648 25.6827 17.9038C25.346 17.5565 25.3431 17.1698 25.6261 16.7828C25.9568 16.3306 26.2804 15.8722 26.6308 15.436C26.811 15.2115 26.7861 15.0295 26.7115 14.7626C26.5045 14.0205 26.0971 13.6345 25.3037 13.6675C24.9678 13.6814 24.6258 13.5767 24.2879 13.5181C23.7992 13.4332 23.5644 13.1762 23.5602 12.6842C23.5513 11.6575 23.552 10.6305 23.5597 9.60373C23.5635 9.0837 23.7927 8.83051 24.3149 8.74567C24.879 8.65394 25.443 8.55824 26.0102 8.49063C26.2583 8.46107 26.3347 8.31963 26.457 8.12264C26.901 7.40735 26.7747 6.81998 26.2043 6.24984C25.9628 6.00871 25.7828 5.7025 25.5865 5.41763C25.3356 5.05349 25.3687 4.68895 25.6676 4.37889C26.3987 3.62079 27.1377 2.8701 27.8881 2.13134C28.2158 1.80883 28.5921 1.81771 28.9564 2.08932C29.404 2.42271 29.8586 2.74815 30.2874 3.10486C30.5259 3.30317 30.7199 3.25585 30.9959 3.18493C31.7418 2.99325 32.0509 2.54745 32.036 1.78311C32.0291 1.4252 32.133 1.06424 32.1948 0.706064C32.273 0.251782 32.5401 0.00495508 33.0005 0.00309925C34.0305 -0.00114266 35.0606 -0.000878479 36.0907 0.00296575C36.5513 0.00468903 36.8224 0.25165 36.8968 0.705534C36.9905 1.2762 37.0814 1.8478 37.1476 2.42218C37.1797 2.69989 37.309 2.81323 37.5498 2.95414C38.2461 3.36163 38.8102 3.27056 39.3562 2.69181C39.5789 2.45559 39.8706 2.28525 40.1347 2.09038C40.5213 1.80512 40.8995 1.82301 41.2402 2.16342C41.9619 2.88442 42.6817 3.6078 43.3891 4.34297C43.7511 4.71904 43.7639 5.05734 43.4524 5.50008C43.1394 5.94469 42.8219 6.38757 42.4791 6.80871C42.2859 7.04626 42.3104 7.23887 42.3876 7.5244C42.5869 8.2609 42.993 8.61364 43.7642 8.58766C44.1327 8.5752 44.508 8.68151 44.8757 8.75667C45.2963 8.84271 45.5316 9.11193 45.5335 9.55535C45.5381 10.5987 45.5356 11.6421 45.5349 12.6855C45.5345 13.1528 45.2975 13.4339 44.8519 13.5132C44.2732 13.6164 43.6927 13.7155 43.1091 13.7779C42.8369 13.8069 42.7514 13.9501 42.6255 14.1674C42.2229 14.8621 42.2888 15.4411 42.8748 15.9969C43.1214 16.2307 43.2953 16.5444 43.4935 16.828C43.7596 17.2085 43.7239 17.5808 43.4076 17.9069C42.6857 18.6512 41.9543 19.3858 41.2237 20.1213C41.0685 20.277 40.8789 20.3689 40.6538 20.3698ZM41.8055 5.03308C41.7461 4.96322 41.6896 4.88832 41.6246 4.82178C41.3487 4.53903 41.0553 4.27218 40.798 3.97326C40.6225 3.76939 40.4936 3.81234 40.3161 3.95338C39.9305 4.25986 39.5281 4.54472 39.1434 4.85226C38.7939 5.1317 38.4352 5.16378 38.0528 4.9428C37.5258 4.63805 36.9718 4.40275 36.3842 4.24607C35.9813 4.13856 35.7402 3.88246 35.691 3.44819C35.6447 3.03779 35.5552 2.63109 35.5304 2.21989C35.5024 1.75103 35.3567 1.49095 34.8302 1.58003C34.5598 1.62576 34.2749 1.60004 33.9978 1.58453C33.7644 1.57141 33.651 1.63266 33.6246 1.89685C33.5738 2.40601 33.4701 2.9096 33.4092 3.41797C33.3518 3.89426 33.0887 4.1542 32.6435 4.26555C32.1986 4.3769 31.749 4.51371 31.3742 4.77233C30.7214 5.22303 30.1776 5.12494 29.6161 4.60875C29.281 4.30069 28.8474 3.81631 28.5194 3.86204C28.1412 3.9148 27.8393 4.47407 27.487 4.79407C27.3031 4.96136 27.2958 5.08557 27.4502 5.2799C27.7678 5.6793 28.0556 6.10283 28.3665 6.5078C28.6294 6.8502 28.6348 7.19711 28.4437 7.57173C28.2792 7.89451 28.0356 8.21265 27.9912 8.55479C27.8296 9.80336 27.0065 10.1008 25.9547 10.1285C25.922 10.1295 25.8893 10.1319 25.8568 10.1352C25.1235 10.2111 25.1235 10.2113 25.1235 10.9321C25.1235 11.1807 25.143 11.4311 25.1184 11.677C25.0902 11.9575 25.2076 12.0431 25.465 12.0733C25.9834 12.1342 26.4971 12.2345 27.0144 12.3056C27.4044 12.3591 27.6345 12.5886 27.7324 12.9548C27.8997 13.5812 28.1502 14.17 28.4589 14.7367C28.6519 15.0909 28.6212 15.433 28.3691 15.7534C28.2469 15.9088 28.1323 16.0703 28.0174 16.2312C27.7783 16.5658 27.3394 16.9155 27.3603 17.2337C27.3809 17.5494 27.8899 17.8143 28.1393 18.1374C28.4181 18.4981 28.6468 18.4713 28.9568 18.1797C29.2306 17.9222 29.5673 17.7345 29.8519 17.4871C30.2679 17.1253 30.6792 17.0902 31.1498 17.3807C31.5397 17.6215 31.9574 17.8324 32.4066 17.92C33.14 18.0632 33.4123 18.5104 33.4724 19.2347C33.5985 20.7564 33.6227 20.7493 35.1204 20.6835C35.3356 20.6741 35.4397 20.6356 35.4632 20.3929C35.5091 19.9162 35.6037 19.4446 35.6559 18.9684C35.7153 18.4249 35.9775 18.1118 36.5183 17.9758C36.9411 17.8692 37.3783 17.7193 37.7378 17.4791C38.3843 17.0471 38.903 17.1484 39.458 17.6396C39.8069 17.9484 40.1993 18.4722 40.5935 18.3991C40.9799 18.3273 41.2736 17.7771 41.6235 17.454C41.7915 17.2987 41.799 17.1855 41.6571 17.0057C41.3407 16.6053 41.0536 16.1813 40.7399 15.7786C40.4621 15.4218 40.4443 15.0594 40.6622 14.6739C40.9145 14.2277 41.1612 13.7686 41.2575 13.2665C41.399 12.53 41.847 12.2828 42.5305 12.2247C44.0345 12.097 44.0261 12.0802 43.9756 10.5651C43.9673 10.315 43.8958 10.2266 43.6525 10.1983C43.1342 10.1379 42.6207 10.0353 42.103 9.96655C41.6933 9.91207 41.4537 9.67611 41.3514 9.28943C41.1898 8.67886 40.9481 8.10435 40.6436 7.5537C40.4391 7.18399 40.4702 6.83284 40.7352 6.49349C41.0391 6.10402 41.3257 5.70091 41.6187 5.30284C41.6773 5.2237 41.7312 5.14098 41.8055 5.03308Z" fill="#F17A23"/>
<path fill-rule="evenodd" clip-rule="evenodd" d="M34.5488 31.8134C34.5513 30.4748 35.5915 29.4242 36.911 29.4271C38.225 29.4301 39.26 30.4926 39.2537 31.8321C39.2474 33.1578 38.1935 34.2002 36.8659 34.1934C35.5803 34.187 34.5463 33.125 34.5488 31.8134ZM37.6828 31.8051C37.6797 31.3937 37.3006 31.0142 36.8972 31.0184C36.4903 31.0227 36.1187 31.4039 36.1207 31.8149C36.123 32.225 36.502 32.6044 36.9064 32.6015C37.3107 32.5986 37.686 32.2136 37.6828 31.8051Z" fill="#F17A23"/>
<path fill-rule="evenodd" clip-rule="evenodd" d="M12.586 16.7018C12.7167 16.7018 12.8496 16.7167 12.9778 16.6988C13.2321 16.663 13.3362 16.7559 13.4035 17.0186C13.6037 17.7993 14.1888 18.2754 14.8966 18.2894C15.6158 18.3033 16.2295 17.817 16.4352 17.0157C16.5035 16.7495 16.613 16.6683 16.864 16.6982C17.0251 16.7176 17.1905 16.7018 17.3538 16.7018C18.1588 16.7018 18.1588 16.7018 17.9636 17.4823C17.5857 18.9938 16.2687 19.9517 14.673 19.8754C13.2836 19.8092 12.0276 18.6333 11.801 17.1918C11.7508 16.8731 11.7646 16.6263 12.1941 16.6985C12.3215 16.7198 12.4553 16.7018 12.586 16.7018Z" fill="#F17A23"/>
<path fill-rule="evenodd" clip-rule="evenodd" d="M13.3476 13.5146C13.3476 14.3126 13.3476 14.3126 12.4101 14.3122C11.7806 14.3121 11.7806 14.3121 11.781 13.3502C11.7813 12.725 11.7813 12.725 12.7429 12.7255C13.3476 12.7258 13.3476 12.7258 13.3476 13.5146Z" fill="#F17A23"/>
<path fill-rule="evenodd" clip-rule="evenodd" d="M18.0583 13.5514C18.0583 14.3122 18.0583 14.3122 17.2794 14.3122C16.4917 14.3122 16.4917 14.3122 16.4917 13.511C16.4917 12.7255 16.4917 12.7255 17.2461 12.7255C18.0583 12.7253 18.0583 12.7253 18.0583 13.5514Z" fill="#F17A23"/>
<path fill-rule="evenodd" clip-rule="evenodd" d="M39.2549 11.1756C39.2478 13.802 37.1327 15.9124 34.5174 15.9026C31.9 15.8926 29.83 13.7515 29.8382 11.0628C29.8461 8.44952 31.9724 6.3519 34.6013 6.3637C37.192 6.37536 39.2617 8.51567 39.2549 11.1756ZM34.5292 14.3145C36.2467 14.3224 37.69 12.8642 37.686 11.125C37.6818 9.40528 36.2589 7.95919 34.5636 7.95176C32.8445 7.94421 31.4056 9.39785 31.4065 11.141C31.4075 12.8566 32.8342 14.3067 34.5292 14.3145Z" fill="#F17A23"/>
<path fill-rule="evenodd" clip-rule="evenodd" d="M37.6827 31.8051C37.6857 32.2136 37.3105 32.5986 36.9063 32.6015C36.5018 32.6044 36.1228 32.225 36.1206 31.8149C36.1184 31.404 36.49 31.0227 36.897 31.0185C37.3005 31.0142 37.6796 31.3937 37.6827 31.8051Z" fill="#F17A23"/>
</svg>
