<svg width="61" height="50" viewBox="0 0 61 50" fill="none" xmlns="http://www.w3.org/2000/svg">
<path d="M33.2239 43.208L43.2079 24.52L50.1199 22.6C49.3519 24.0507 48.4559 25.288 47.4319 26.312C46.4079 27.2507 45.2559 27.72 43.9759 27.72C41.0746 27.72 38.3866 26.5253 35.9119 24.136C33.5226 21.6613 32.3279 18.5893 32.3279 14.92C32.3279 10.9947 33.6506 7.62399 36.2959 4.80799C38.9412 1.99199 42.2692 0.583984 46.2799 0.583984C50.0346 0.583984 53.2772 1.99199 56.0079 4.80799C58.8239 7.53866 60.2319 10.9093 60.2319 14.92C60.2319 16.5413 59.9332 18.4187 59.3359 20.552C58.7386 22.6853 57.5012 25.4587 55.6239 28.872L44.4879 49.352L33.2239 43.208ZM1.60791 43.208L11.5919 24.52L18.5039 22.6C17.7359 24.0507 16.8399 25.288 15.8159 26.312C14.7919 27.2507 13.6399 27.72 12.3599 27.72C9.45858 27.72 6.77058 26.5253 4.29591 24.136C1.90658 21.6613 0.711914 18.5893 0.711914 14.92C0.711914 10.9947 2.03458 7.62399 4.67991 4.80799C7.32525 1.99199 10.6532 0.583984 14.6639 0.583984C18.4186 0.583984 21.6612 1.99199 24.3919 4.80799C27.2079 7.53866 28.6159 10.9093 28.6159 14.92C28.6159 16.5413 28.3172 18.4187 27.7199 20.552C27.1226 22.6853 25.8852 25.4587 24.0079 28.872L12.8719 49.352L1.60791 43.208Z" fill="#F17A23"/>
</svg>
